<svg xmlns="http://www.w3.org/2000/svg" width="381.387" height="441.281" viewBox="0 0 381.387 441.281"><defs><style>.a{fill:#fce0cd;}.b{fill:#fff;}.c{fill:#382f2d;}.d{fill:#645d5c;}.e{fill:#f9d2bb;}</style></defs><path class="a" d="M0,361.527a205.975,205.975,0,0,1,24.834-48.81c3.818-5.532,8.028-11.156,9.094-17.792.577-3.587.188-7.249-.085-10.872-1.967-26.12-3.114-57.324.379-65.831,5.522-13.447,8.623-40.574,9.859-54.814.189-2.179,2.325-6.679,3.7-8.74q.884-1.388,1.686-2.865c5.032-9.24,7.742-20.842,9.81-30.944.684-3.345,1.206-6.787,2.761-9.827s4.41-5.672,7.817-5.895c5.164-.338,9.008,4.655,11.157,9.363a57.649,57.649,0,0,1-2.768,52.362L190.9,291.585c-16.968,22-27.237,32.287-58.2,52.578-4.216,2.762-19.576,11.215-23.434,14.529-12.69,10.9-21.657,28.687-27.237,44.3Z"/><path class="a" d="M220.477,84.953a81.67,81.67,0,0,1,8.641-6.063c2.99-1.935,7.346-2.344,10.863-1.781,4.941.791,8.059,6.221,7.937,11.223s-2.533,9.678-5.292,13.852c-7.047,10.659-15.883,21.779-21.595,25.533"/><path class="b" d="M101.649,2.406H198.1a24.052,24.052,0,0,1,24.052,24.052V267.335A24.049,24.049,0,0,1,198.1,291.384H101.652A24.052,24.052,0,0,1,77.6,267.332V26.456A24.049,24.049,0,0,1,101.649,2.406Z"/><path class="c" d="M193.228.709c.953-.748-.105-.088-.361.076A6.672,6.672,0,0,0,191.105,2.4c-1.217,1.613-1.124,3.47-1.124,5.392a10.543,10.543,0,0,1-.72,4.917,7.559,7.559,0,0,1-3.028,3.239,8.574,8.574,0,0,1-4.476.961l-5.7.008-12.693.018q-11.745.02-23.489.006l-12.81-.019-6.041-.009a32.878,32.878,0,0,1-4.964-.073,7.477,7.477,0,0,1-6.289-6.979c-.088-2.151.366-4.534-.554-6.551a5.775,5.775,0,0,0-1.559-2.028,8.2,8.2,0,0,0-.938-.686c-.255-.158-.769-.551.027.116a2.467,2.467,0,0,0-3.394,0,2.42,2.42,0,0,0,0,3.394,9.669,9.669,0,0,0,1.086.724c.081.051.331.252-.011-.02a1.827,1.827,0,0,1,.328.316c-.2-.3.221.5.166.308a9.541,9.541,0,0,1,.042,2.363,25.822,25.822,0,0,0,.1,3.1,12.262,12.262,0,0,0,6.317,9.357c3.622,1.913,7.77,1.459,11.727,1.464l13.066.019q12.256.02,24.512,0l13.2-.02L180,21.708a22,22,0,0,0,5.786-.429,12.289,12.289,0,0,0,8.655-8.914c.512-2.212.055-4.446.327-6.627a.922.922,0,0,1,.522-.808,15.418,15.418,0,0,0,1.333-.827,2.414,2.414,0,0,0,0-3.394,2.462,2.462,0,0,0-3.395,0Z"/><path class="c" d="M194.926,2.406c0,.054-2.545.852-2.545,3.33V9.507a9.8,9.8,0,0,1-9.78,9.8c-9.319.013-23.291.032-32.727.051-9.436-.019-23.408-.038-32.727-.051a9.8,9.8,0,0,1-9.78-9.8V5.736a3.853,3.853,0,0,0-2.314-3.33"/><path class="c" d="M198.1,288.984H102.522a24.387,24.387,0,0,1-7.972-1.191,21.928,21.928,0,0,1-12.512-11.274C79.111,270.438,80,262.661,80,256.067V27.492a22.473,22.473,0,0,1,6.618-16.6,21.787,21.787,0,0,1,15.038-6.085c.861-.006,1.722,0,2.583,0h88.167c4.6,0,9.1-.226,13.516,1.452A21.907,21.907,0,0,1,219.748,26.7c0,1.928,0,3.856,0,5.784V252.65c0,5.027.085,10.063,0,15.09A21.878,21.878,0,0,1,198.1,288.984c-3.088.026-3.095,4.826,0,4.8a26.751,26.751,0,0,0,26.24-23.256,52.488,52.488,0,0,0,.211-6.6V43.9c0-5.779.033-11.56,0-17.34A26.82,26.82,0,0,0,207.2,1.629c-4.72-1.78-9.579-1.623-14.5-1.623H103.941c-1.031,0-2.067-.021-3.1.014A26.7,26.7,0,0,0,83.5,7.236a27.065,27.065,0,0,0-8.3,19.979V265.672a29.116,29.116,0,0,0,3.489,14.784A26.977,26.977,0,0,0,102.4,293.784H198.1C201.185,293.784,201.19,288.984,198.1,288.984Z"/><path class="c" d="M124.131,282l17.77,0,26.4-.006h7.318c3.088,0,3.093-4.8,0-4.8q-8.986,0-17.972,0L131.3,277.2h-7.173c-3.088,0-3.093,4.8,0,4.8Z"/><path class="d" d="M134.907,13.6q9.469,0,18.94-.01c3.088,0,3.093-4.8,0-4.8q-9.471,0-18.94.01c-3.089,0-3.094,4.8,0,4.8Z"/><path class="d" d="M164.841,13.6c3.089,0,3.094-4.8,0-4.8s-3.094,4.8,0,4.8Z"/><path class="a" d="M47.785,154.668q.884-1.388,1.686-2.865c5.032-9.24,7.742-20.842,9.81-30.944.684-3.345,1.206-6.787,2.761-9.827s4.41-5.672,7.817-5.895c5.164-.338,9.008,4.655,11.157,9.363a57.649,57.649,0,0,1-2.768,52.362s-2.147,3.722-4.369,5.352"/><path class="a" d="M235.026,188.919l4.374-4c3.294-3.008,6.706-6.191,8.206-10.392,2.192-6.137-.5-13.431-5.716-17.343s-12.07-5.532-17.525-1.966c-2.669,1.744-8.071,8.162-10.5,11.776-2.711,4.034-4.941,8.836-5.314,13.682a13.1,13.1,0,0,0,5.457,12.181c4.025,2.8,9.562,2.534,14.019.485A53.5,53.5,0,0,0,235.026,188.919Z"/><path class="a" d="M229.777,231.213l4.817-2.235c3.627-1.683,7.4-3.482,9.818-6.668,3.529-4.654,3.192-11.616-.206-16.367s-8.824-7.984-14.448-6.409c-2.752.771-9.1,4.8-12.153,7.232-3.406,2.717-6.608,6.22-8.234,10.261a11.746,11.746,0,0,0,1.377,11.884c2.684,3.482,7.489,4.746,11.852,4.2A47.915,47.915,0,0,0,229.777,231.213Z"/><path class="a" d="M312.162,441.281C292.541,422.7,274.274,424.158,254,416.442c-18.638-7.092-29.126-24.623-38.354-42.3-3.809-7.3-7.695-14.861-8.273-23.072s4.373-20.668,11.078-27.372l.5-.5c-15.693-23.23-26.611-42.493-42.92-70.1-2.91-4.926-7.79-13.733-8.78-19.312-1.7-9.6,1.959-14.044,7.854-15.207,1.757-.346,10.163.062,16.661,8.779,15.775,21.162,29.224,40.081,40.947,55.89-3.062-13.372,9.337-14.022,15.467-13,5.28.876,9.089,3.877,12.594,7.921,3.086,3.56,6.028,7.049,9,10.6-1.832-9.316,1.634-14.122,8.509-16.232,3.672-1.126,9.28-.774,12.552,2.35,1.917,1.83,3.736,3.585,5.494,5.31,4-5.313,11.772-6.508,18.114-4.558,6.279,1.931,11.458,6.334,16.3,10.772,13.025,11.939,25.394,25.512,31.048,42.252,7.387,21.872,4.463,53.128,19.6,70.561"/><path class="e" d="M235.735,291.257c7.81,10.331,15.765,20.695,24.906,29.9,2.18,2.195,5.574-1.2,3.394-3.394-8.854-8.915-16.59-18.921-24.155-28.928a2.478,2.478,0,0,0-3.284-.861,2.417,2.417,0,0,0-.861,3.284Z"/><path class="e" d="M235.164,355.658a108.62,108.62,0,0,0-9.562-25.915c-1.407-2.751-5.55-.325-4.145,2.423a103.492,103.492,0,0,1,9.078,24.768c.663,3.016,5.292,1.74,4.629-1.276Z"/><path class="e" d="M268.073,290.458c5.906,7.066,11.775,14.162,17.779,21.146a2.421,2.421,0,0,0,3.394,0,2.448,2.448,0,0,0,0-3.394c-6-6.984-11.873-14.08-17.779-21.147a2.419,2.419,0,0,0-3.394,0,2.453,2.453,0,0,0,0,3.4Z"/><path class="e" d="M299.053,286.3c5.905,6,11.533,12.251,16.956,18.689a2.42,2.42,0,0,0,3.394,0,2.452,2.452,0,0,0,0-3.4c-5.423-6.437-11.051-12.69-16.956-18.688-2.171-2.2-5.565,1.19-3.394,3.394Z"/></svg>