<svg xmlns="http://www.w3.org/2000/svg" width="433.679" height="176.691" viewBox="0 0 433.679 176.691"><defs><style>.a{fill:#ffda71;}.b{fill:#fff;}.c{fill:#6dbf6b;}</style></defs><path class="a" d="M433.678,84.6l-.113-.189a5.641,5.641,0,0,0-.819-2.482c-2.657-4.449-7.942-6.814-12.438-8.264-16.647-5.369-38.084-5.625-47.314-5.625-7.841,0-30.663.254-47.315,5.625-4.5,1.45-9.781,3.815-12.438,8.264a5.644,5.644,0,0,0-.82,2.482l-.112.189c0,8.753,0,72.342,0,72.342,0,6.423,2.886,8.925,6.554,10.961,6.784,3.765,18.16,6.261,25.652,7.11,7.36.833,20.461,1.677,28.461,1.677,8.148,0,21.092-.844,28.449-1.677,7.492-.849,18.868-3.345,25.652-7.11a12.131,12.131,0,0,0,6.6-10.961S433.679,95.086,433.678,84.6Z"/><path class="b" d="M317.877,94.617c6.579,3.6,14.215,5.43,21.561,6.663a191.605,191.605,0,0,0,21.262,2,214.362,214.362,0,0,0,21.466.16c7.256-.328,14.564-.751,21.763-1.754,8.207-1.144,16.857-3.057,24.181-7.066,2.259-1.236.242-4.691-2.019-3.453-6.316,3.457-13.737,5.119-20.786,6.289a185.91,185.91,0,0,1-20.573,1.858c-6.976.37-13.923.44-20.9.123-6.876-.312-13.814-.681-20.641-1.6a95.071,95.071,0,0,1-11.98-2.428A50.907,50.907,0,0,1,319.9,91.164c-2.259-1.237-4.28,2.216-2.019,3.453Z"/><path class="b" d="M317.852,119.853c6.58,3.6,14.216,5.429,21.562,6.663a191.849,191.849,0,0,0,21.261,2,214.364,214.364,0,0,0,21.466.16c7.257-.328,14.565-.751,21.764-1.754,8.206-1.143,16.857-3.056,24.181-7.065,2.258-1.237.242-4.692-2.019-3.454-6.317,3.457-13.737,5.119-20.786,6.29a186.172,186.172,0,0,1-20.573,1.857c-6.976.37-13.924.441-20.9.123-6.876-.312-13.814-.681-20.641-1.6a95.032,95.032,0,0,1-11.98-2.427,50.967,50.967,0,0,1-11.313-4.244c-2.259-1.237-4.28,2.216-2.019,3.454Z"/><path class="b" d="M317.852,144.742c6.58,3.6,14.216,5.429,21.562,6.662a191.61,191.61,0,0,0,21.261,2,214.364,214.364,0,0,0,21.466.16c7.257-.328,14.565-.751,21.764-1.754,8.206-1.144,16.857-3.056,24.181-7.065,2.258-1.237.242-4.692-2.019-3.454-6.317,3.457-13.737,5.119-20.786,6.29a186.172,186.172,0,0,1-20.573,1.857c-6.976.37-13.924.441-20.9.123-6.876-.312-13.814-.681-20.641-1.6a95.21,95.21,0,0,1-11.98-2.427,50.967,50.967,0,0,1-11.313-4.244c-2.259-1.237-4.28,2.216-2.019,3.454Z"/><path class="c" d="M370.479,25.716c-.218,15.039-.514,30.078-.767,45.117q-.117,7.012-.219,14.026c-.045,3.09,4.755,3.092,4.8,0,.218-15.039.514-30.077.766-45.116q.118-7.014.22-14.027c.045-3.09-4.755-3.091-4.8,0Z"/><path class="c" d="M425.849,8.63a4.111,4.111,0,0,0-2.218-3.74A32.271,32.271,0,0,0,407.42.047a37.873,37.873,0,0,0-21.183,5.258c-10.468,6.326-13.331,17.681-13.938,20.838a1.234,1.234,0,0,0,.622,1.294c3.405,2.092,17.669,9.822,32.223,5.22,2.552-.807,11.294-3.7,16.781-11.567C424.728,17.068,425.544,11.823,425.849,8.63Z"/><path class="c" d="M319.694,8.927a4.111,4.111,0,0,1,2.217-3.741A32.281,32.281,0,0,1,338.122.343,37.873,37.873,0,0,1,359.305,5.6c10.468,6.327,13.331,17.681,13.938,20.838a1.233,1.233,0,0,1-.622,1.294c-3.4,2.093-17.669,9.822-32.222,5.221-2.552-.807-11.3-3.7-16.781-11.568C320.814,17.364,320,12.119,319.694,8.927Z"/><path class="a" d="M277.524,108.788v-1.52c-.593-.994-.932-1.56-.932-1.56-2.658-4.449-7.942-6.814-12.438-8.265-16.647-5.368-38.084-5.624-47.314-5.624-7.841,0-30.663.254-47.315,5.624-4.5,1.451-9.781,3.816-12.439,8.265l-.931,1.56v1.042h0v47.522c0,6.423,2.886,8.924,6.554,10.96,6.784,3.766,18.16,6.262,25.652,7.11,7.36.834,20.461,1.678,28.461,1.678,8.148,0,21.092-.845,28.449-1.678,7.492-.848,18.868-3.344,25.652-7.11a12.129,12.129,0,0,0,6.6-10.96V108.788Z"/><path class="b" d="M161.723,118.4c6.579,3.6,14.215,5.429,21.561,6.663a191.605,191.605,0,0,0,21.262,2,214.661,214.661,0,0,0,21.466.16c7.256-.329,14.564-.751,21.763-1.754,8.206-1.144,16.857-3.057,24.181-7.066,2.258-1.236.242-4.692-2.019-3.454-6.316,3.458-13.737,5.12-20.786,6.29a185.667,185.667,0,0,1-20.573,1.857c-6.976.371-13.924.441-20.9.124-6.876-.313-13.814-.681-20.641-1.6a95.071,95.071,0,0,1-11.98-2.428,50.94,50.94,0,0,1-11.312-4.244c-2.259-1.236-4.28,2.216-2.019,3.454Z"/><path class="b" d="M161.7,143.63c6.58,3.6,14.216,5.43,21.562,6.663a191.588,191.588,0,0,0,21.261,2,214.364,214.364,0,0,0,21.466.16c7.257-.328,14.565-.751,21.764-1.754,8.206-1.144,16.857-3.056,24.18-7.066,2.259-1.236.243-4.691-2.018-3.453-6.317,3.457-13.737,5.119-20.787,6.29a186.132,186.132,0,0,1-20.572,1.857c-6.976.37-13.924.44-20.9.123-6.877-.312-13.814-.681-20.641-1.6a95.21,95.21,0,0,1-11.98-2.427,50.967,50.967,0,0,1-11.313-4.244c-2.259-1.237-4.28,2.216-2.019,3.453Z"/><path class="c" d="M214.35,61.929c-.223,15.57-.544,31.138-.767,46.708-.044,3.09,4.756,3.091,4.8,0,.223-15.57.544-31.138.767-46.708.044-3.09-4.756-3.091-4.8,0Z"/><path class="c" d="M257.858,49.568a3.2,3.2,0,0,0-1.725-2.91,25.113,25.113,0,0,0-12.611-3.768,29.459,29.459,0,0,0-16.479,4.091C218.9,51.9,216.673,60.735,216.2,63.191a.959.959,0,0,0,.483,1.006c2.65,1.629,13.746,7.641,25.067,4.062,1.985-.628,8.786-2.876,13.054-9C256.986,56.131,257.621,52.051,257.858,49.568Z"/><path class="c" d="M175.821,49.568a3.2,3.2,0,0,1,1.725-2.91,25.109,25.109,0,0,1,12.611-3.768,29.458,29.458,0,0,1,16.478,4.091c8.143,4.921,10.37,13.754,10.843,16.21a.959.959,0,0,1-.484,1.006c-2.649,1.629-13.745,7.641-25.067,4.062-1.985-.628-8.786-2.876-13.054-9C176.692,56.131,176.058,52.051,175.821,49.568Z"/><path class="a" d="M4.318,163.381C1.779,161.5,0,158.875,0,153.832V130.157l.932-1.56c2.658-4.449,7.942-6.814,12.439-8.265,16.652-5.371,39.474-5.624,47.314-5.624,9.231,0,30.668.255,47.315,5.624,4.5,1.451,9.78,3.816,12.438,8.265l.932,1.56v23.675a12.129,12.129,0,0,1-6.6,10.96c-6.784,3.766-18.16,6.262-25.652,7.11-7.357.833-20.3,1.678-28.449,1.678-8,0-21.1-.844-28.461-1.678-7.492-.848-18.868-3.344-25.652-7.11A20.178,20.178,0,0,1,4.318,163.381Z"/><path class="b" d="M5.569,141.284c6.579,3.6,14.215,5.429,21.561,6.663a191.605,191.605,0,0,0,21.262,2,214.661,214.661,0,0,0,21.466.16c7.256-.329,14.564-.751,21.763-1.755,8.206-1.143,16.857-3.056,24.181-7.065,2.258-1.236.242-4.692-2.019-3.454-6.316,3.458-13.737,5.12-20.786,6.29a185.909,185.909,0,0,1-20.573,1.857c-6.976.37-13.924.441-20.9.124-6.876-.313-13.814-.682-20.641-1.6a94.891,94.891,0,0,1-11.98-2.427A50.94,50.94,0,0,1,7.588,137.83c-2.26-1.236-4.28,2.216-2.019,3.454Z"/><path class="c" d="M58.622,96.975c-.167,11.518-.507,23.033-.674,34.551-.045,3.09,4.755,3.091,4.8,0,.167-11.518.507-23.033.674-34.551.045-3.09-4.755-3.091-4.8,0Z"/><path class="c" d="M100.4,82.739a3.2,3.2,0,0,0-1.725-2.91,25.109,25.109,0,0,0-12.611-3.768,29.471,29.471,0,0,0-16.479,4.091c-8.143,4.921-10.37,13.754-10.842,16.21a.962.962,0,0,0,.483,1.007c2.65,1.628,13.746,7.64,25.067,4.061,1.985-.628,8.786-2.875,13.054-9C99.532,89.3,100.166,85.223,100.4,82.739Z"/></svg>